<?xml version="1.0" encoding="UTF-8" standalone="no"?>
<!-- Created with Inkscape (http://www.inkscape.org/) -->

<svg
   xmlns:dc="http://purl.org/dc/elements/1.1/"
   xmlns:cc="http://creativecommons.org/ns#"
   xmlns:rdf="http://www.w3.org/1999/02/22-rdf-syntax-ns#"
   xmlns:svg="http://www.w3.org/2000/svg"
   xmlns="http://www.w3.org/2000/svg"
   xmlns:sodipodi="http://sodipodi.sourceforge.net/DTD/sodipodi-0.dtd"
   xmlns:inkscape="http://www.inkscape.org/namespaces/inkscape"
   width="500"
   height="500"
   id="svg2"
   version="1.1"
   inkscape:version="0.48.1 "
   sodipodi:docname="New document 1">
  <defs
     id="defs4" />
  <sodipodi:namedview
     id="base"
     pagecolor="#ffffff"
     bordercolor="#666666"
     borderopacity="1.0"
     inkscape:pageopacity="0.0"
     inkscape:pageshadow="2"
     inkscape:zoom="0.24748737"
     inkscape:cx="374.73064"
     inkscape:cy="439.1878"
     inkscape:document-units="px"
     inkscape:current-layer="layer1"
     showgrid="false"
     inkscape:window-width="1366"
     inkscape:window-height="706"
     inkscape:window-x="-8"
     inkscape:window-y="-8"
     inkscape:window-maximized="1" />
  <metadata
     id="metadata7">
    <rdf:RDF>
      <cc:Work
         rdf:about="">
        <dc:format>image/svg+xml</dc:format>
        <dc:type
           rdf:resource="http://purl.org/dc/dcmitype/StillImage" />
        <dc:title></dc:title>
      </cc:Work>
    </rdf:RDF>
  </metadata>
  <g
     inkscape:label="Layer 1"
     inkscape:groupmode="layer"
     id="layer1"
     transform="translate(0,-552.36218)">
    <g
       id="g3851"
       transform="matrix(0.67921,0,0,0.67921,193.15223,358.15154)">
      <path
         inkscape:transform-center-y="-82.11332"
         inkscape:transform-center-x="36.850979"
         inkscape:connector-curvature="0"
         id="path3779"
         d="m -93.702101,479.80776 c 0,0 -112.204539,-97.8648 -70.222539,-137.37924 41.982,-39.51443 75.44605,11.61408 75.44605,11.61408 0,0 22.764636,92.35654 12.664564,122.62741 -10.100082,30.27087 -17.888075,3.13775 -17.888075,3.13775 z"
         style="fill:#77bdef;fill-opacity:1;stroke:#77bdef;stroke-width:0.94285113px;stroke-linecap:butt;stroke-linejoin:miter;stroke-opacity:1" />
      <path
         inkscape:transform-center-y="-58.856083"
         inkscape:transform-center-x="-67.598916"
         inkscape:connector-curvature="0"
         id="path3781"
         d="m -85.546186,481.51611 c 0,0 49.864277,-124.803 99.859185,-109.03593 49.994917,15.76709 15.337679,61.90224 15.337679,61.90224 0,0 -75.495344,54.77472 -106.247702,59.41714 -30.752346,4.6424 -8.949162,-12.28345 -8.949162,-12.28345 z"
         style="fill:#77bdef;fill-opacity:1;stroke:#77bdef;stroke-width:0.85507154px;stroke-linecap:butt;stroke-linejoin:miter;stroke-opacity:1" />
      <path
         inkscape:transform-center-y="47.53938"
         inkscape:transform-center-x="-65.257569"
         inkscape:connector-curvature="0"
         id="path3783"
         d="m -97.854099,487.96243 c 0,0 148.54386,-2.94202 153.88847,59.09271 5.34459,62.03474 -56.51553969,45.35087 -56.51553969,45.35087 0,0 -88.15572031,-57.43175 -106.05807131,-88.97562 -17.90234,-31.54386 8.685141,-15.46796 8.685141,-15.46796 z"
         style="fill:#77bdef;fill-opacity:1;stroke:#77bdef;stroke-width:0.98010319px;stroke-linecap:butt;stroke-linejoin:miter;stroke-opacity:1" />
      <path
         inkscape:transform-center-y="59.024489"
         inkscape:transform-center-x="40.434089"
         inkscape:connector-curvature="0"
         id="path3785"
         d="m -84.056042,483.86035 c 0,0 6.488249,137.00457 -56.847828,143.06794 -63.33608,6.06338 -47.71718,-51.3181 -47.71718,-51.3181 0,0 56.68799,-82.38743 88.53798,-99.48117 31.849975,-17.09373 16.027028,7.73133 16.027028,7.73133 z"
         style="fill:#77bdef;fill-opacity:1;stroke:#77bdef;stroke-width:0.95242786px;stroke-linecap:butt;stroke-linejoin:miter;stroke-opacity:1" />
      <path
         inkscape:transform-center-y="-18.102699"
         inkscape:transform-center-x="77.111454"
         inkscape:connector-curvature="0"
         id="path3787"
         d="m -93.804219,492.99849 c 0,0 -133.167531,48.75436 -155.276401,-3.53234 -22.10887,-52.28673 38.33884,-57.01547 38.33884,-57.01547 0,0 95.52219,22.53019 120.460951,44.39501 24.938753,21.86482 -3.52339,16.1528 -3.52339,16.1528 z"
         style="fill:#77bdef;fill-opacity:1;stroke:#77bdef;stroke-width:0.91475815px;stroke-linecap:butt;stroke-linejoin:miter;stroke-opacity:1" />
      <path
         inkscape:transform-center-y="-29.017431"
         inkscape:transform-center-x="-2.6905968"
         inkscape:connector-curvature="0"
         id="path3789"
         d="m -99.739479,480.94017 c 0,0 -4.528061,-26.33233 -7.507721,-35.05426 -2.97966,-8.72192 -7.1413,-25.3502 11.751011,-16.34568 18.89231,9.00452 15.08098,25.05041 15.89654,23.25273 0.81557,-1.79769 -17.9091,40.43119 -17.9091,40.43119 z"
         style="fill:#00004e;fill-opacity:1;stroke:#00004d;stroke-width:0.8739416px;stroke-linecap:butt;stroke-linejoin:miter;stroke-opacity:1" />
      <path
         inkscape:transform-center-y="-21.819461"
         inkscape:transform-center-x="-22.774576"
         inkscape:connector-curvature="0"
         id="path3791"
         d="m -95.082879,481.32905 c 0,0 17.88535,-19.84967 22.89381,-27.58698 5.00844,-7.73728 15.49691,-21.29499 20.11194,-0.8817 4.61503,20.41329 -10.34895,27.347 -8.43206,26.87545 1.91689,-0.47155 -42.843911,10.94607 -42.843911,10.94607 z"
         style="fill:#00004e;fill-opacity:1;stroke:#00004d;stroke-width:0.8739416px;stroke-linecap:butt;stroke-linejoin:miter;stroke-opacity:1" />
      <path
         inkscape:transform-center-y="17.705316"
         inkscape:transform-center-x="-27.111824"
         inkscape:connector-curvature="0"
         id="path3793"
         d="m -90.968789,485.14932 c 0,0 24.86616,9.77595 33.86948,11.74842 9.00331,1.97247 25.38073,7.03207 7.88805,18.52151 -17.49267,11.48944 -29.23955,-0.0867 -28.12491,1.54249 1.11465,1.62923 -25.293991,-36.27163 -25.293991,-36.27163 z"
         style="fill:#00004e;fill-opacity:1;stroke:#00004d;stroke-width:0.8739416px;stroke-linecap:butt;stroke-linejoin:miter;stroke-opacity:1" />
      <path
         inkscape:transform-center-y="29.140678"
         inkscape:transform-center-x="12.708463"
         inkscape:connector-curvature="0"
         id="path3795"
         d="m -93.501189,484.34307 c 0,0 -1.76843,26.66021 -0.91552,35.83753 0.85291,9.17729 1.0022,26.3178 -15.254091,13.13698 -16.25629,-13.18081 -8.79107,-27.88684 -10.00516,-26.33033 -1.21412,1.55653 26.884631,-35.10886 26.884631,-35.10886 z"
         style="fill:#00004e;fill-opacity:1;stroke:#00004d;stroke-width:0.8739416px;stroke-linecap:butt;stroke-linejoin:miter;stroke-opacity:1" />
      <path
         style="fill:#00004e;fill-opacity:1;stroke:#00004d;stroke-width:0.8739416px;stroke-linecap:butt;stroke-linejoin:miter;stroke-opacity:1"
         d="m -103.88477,485.80091 c 0,0 -26.49994,3.41292 -35.33983,6.0219 -8.83988,2.60898 -25.62896,6.06527 -15.83529,-12.43026 9.79369,-18.49554 25.66446,-14.01053 23.9028,-14.90122 -1.76167,-0.8907 39.639491,19.59918 39.639491,19.59918 z"
         id="path3797"
         inkscape:connector-curvature="0"
         inkscape:transform-center-x="29.144185"
         inkscape:transform-center-y="-4.6168522" />
    </g>
    <g
       id="g3863"
       transform="matrix(0.67921,0,0,0.67921,262.05933,461.83141)">
      <path
         inkscape:transform-center-y="-80.092783"
         inkscape:transform-center-x="36.485097"
         inkscape:connector-curvature="0"
         id="path3799"
         d="m 160.0576,661.91849 c 0,0 -111.090479,-95.45667 -69.525319,-133.99879 41.565179,-38.54212 74.696969,11.3283 74.696969,11.3283 0,0 22.53861,90.08394 12.53882,119.60995 -9.9998,29.52601 -17.71047,3.06054 -17.71047,3.06054 z"
         style="fill:#f8d749;fill-opacity:1;stroke:#f8d749;stroke-width:0.92654437px;stroke-linecap:butt;stroke-linejoin:miter;stroke-opacity:1" />
      <path
         inkscape:transform-center-y="-56.929764"
         inkscape:transform-center-x="-70.138654"
         inkscape:connector-curvature="0"
         id="path3801"
         d="m 169.29474,663.77121 c 0,0 51.73771,-120.7183 103.61096,-105.46726 51.87326,15.25104 15.91393,59.87622 15.91393,59.87622 0,0 -78.33176,52.98198 -110.23951,57.47246 -31.90773,4.49046 -9.28538,-11.88142 -9.28538,-11.88142 z"
         style="fill:#f8d749;fill-opacity:1;stroke:#f8d749;stroke-width:0.85661435px;stroke-linecap:butt;stroke-linejoin:miter;stroke-opacity:1" />
      <path
         inkscape:transform-center-y="57.199086"
         inkscape:transform-center-x="-83.440319"
         inkscape:connector-curvature="0"
         id="path3803"
         d="m 156.70434,669.78989 c 0,0 148.54386,-3.05151 153.88847,61.29189 5.34459,64.34341 -56.51554,47.03863 -56.51554,47.03863 0,0 -88.15572,-59.56911 -106.05807,-92.28691 -17.90234,-32.71779 8.68514,-16.04361 8.68514,-16.04361 z"
         style="fill:#f8d749;fill-opacity:1;stroke:#f8d749;stroke-width:0.99817419px;stroke-linecap:butt;stroke-linejoin:miter;stroke-opacity:1" />
      <path
         inkscape:transform-center-y="76.598614"
         inkscape:transform-center-x="49.862394"
         inkscape:connector-curvature="0"
         id="path3805"
         d="m 170.86616,666.0793 c 0,0 5.89394,135.11536 -51.64069,141.09512 -57.534629,5.97977 -43.346389,-50.61045 -43.346389,-50.61045 0,0 51.495489,-81.25136 80.428089,-98.10939 28.93259,-16.85802 14.55899,7.62472 14.55899,7.62472 z"
         style="fill:#f8d749;fill-opacity:1;stroke:#f8d749;stroke-width:0.90147984px;stroke-linecap:butt;stroke-linejoin:miter;stroke-opacity:1" />
      <path
         inkscape:transform-center-y="-18.431466"
         inkscape:transform-center-x="86.716074"
         inkscape:connector-curvature="0"
         id="path3807"
         d="m 157.72614,676.09446 c 0,0 -133.171859,47.05119 -155.2814485,-3.40894 -22.1095805,-50.46015 38.3400895,-55.0237 38.3400895,-55.0237 0,0 95.525299,21.74312 120.464859,42.84412 24.93957,21.101 -3.5235,15.58852 -3.5235,15.58852 z"
         style="fill:#f8d749;fill-opacity:1;stroke:#f8d749;stroke-width:0.89865273px;stroke-linecap:butt;stroke-linejoin:miter;stroke-opacity:1" />
      <path
         inkscape:transform-center-y="-29.017431"
         inkscape:transform-center-x="-2.6905968"
         inkscape:connector-curvature="0"
         id="path3809"
         d="m 154.81896,662.76763 c 0,0 -4.52806,-26.33233 -7.50772,-35.05426 -2.97966,-8.72192 -7.1413,-25.3502 11.75101,-16.34568 18.89231,9.00452 15.08098,25.05041 15.89654,23.25273 0.81557,-1.79769 -17.9091,40.43119 -17.9091,40.43119 z"
         style="fill:#d50024;fill-opacity:1;stroke:#d50024;stroke-width:0.8739416px;stroke-linecap:butt;stroke-linejoin:miter;stroke-opacity:1" />
      <path
         inkscape:transform-center-y="-21.819461"
         inkscape:transform-center-x="-22.774576"
         inkscape:connector-curvature="0"
         id="path3811"
         d="m 159.47556,663.15651 c 0,0 17.88535,-19.84967 22.89381,-27.58698 5.00844,-7.73728 15.49691,-21.29499 20.11194,-0.8817 4.61503,20.41329 -10.34895,27.347 -8.43206,26.87545 1.91689,-0.47155 -42.84391,10.94607 -42.84391,10.94607 z"
         style="fill:#d50024;fill-opacity:1;stroke:#d50024;stroke-width:0.8739416px;stroke-linecap:butt;stroke-linejoin:miter;stroke-opacity:1" />
      <path
         inkscape:transform-center-y="17.705316"
         inkscape:transform-center-x="-27.111824"
         inkscape:connector-curvature="0"
         id="path3813"
         d="m 163.58965,666.97678 c 0,0 24.86616,9.77595 33.86948,11.74842 9.00331,1.97247 25.38073,7.03207 7.88805,18.52151 -17.49267,11.48944 -29.23955,-0.0867 -28.12491,1.54249 1.11465,1.62923 -25.29399,-36.27163 -25.29399,-36.27163 z"
         style="fill:#d50024;fill-opacity:1;stroke:#d50024;stroke-width:0.8739416px;stroke-linecap:butt;stroke-linejoin:miter;stroke-opacity:1" />
      <path
         inkscape:transform-center-y="29.140678"
         inkscape:transform-center-x="12.708463"
         inkscape:connector-curvature="0"
         id="path3815"
         d="m 161.05725,666.17053 c 0,0 -1.76843,26.66021 -0.91552,35.83753 0.85291,9.17729 1.0022,26.3178 -15.25409,13.13698 -16.25629,-13.18081 -8.79107,-27.88684 -10.00516,-26.33033 -1.21412,1.55653 26.88463,-35.10886 26.88463,-35.10886 z"
         style="fill:#d50024;fill-opacity:1;stroke:#d50024;stroke-width:0.8739416px;stroke-linecap:butt;stroke-linejoin:miter;stroke-opacity:1" />
      <path
         style="fill:#d50024;fill-opacity:1;stroke:#d50024;stroke-width:0.8739416px;stroke-linecap:butt;stroke-linejoin:miter;stroke-opacity:1"
         d="m 150.67367,667.62837 c 0,0 -26.49994,3.41292 -35.33983,6.0219 -8.83988,2.60898 -25.628959,6.06527 -15.835289,-12.43026 9.793689,-18.49554 25.664459,-14.01053 23.902799,-14.90122 -1.76167,-0.8907 39.63949,19.59918 39.63949,19.59918 z"
         id="path3817"
         inkscape:connector-curvature="0"
         inkscape:transform-center-x="29.144185"
         inkscape:transform-center-y="-4.6168522" />
    </g>
    <g
       id="g3875"
       transform="matrix(0.67921,0,0,0.67921,-233.84116,216.28159)">
      <path
         inkscape:transform-center-y="-80.092784"
         inkscape:transform-center-x="36.485093"
         inkscape:connector-curvature="0"
         id="path3819"
         d="m 548.96634,1036.6851 c 0,0 -111.09048,-95.45668 -69.52532,-133.9988 41.56518,-38.54212 74.69697,11.3283 74.69697,11.3283 0,0 22.53861,90.0839 12.53882,119.6099 -9.9998,29.5261 -17.71047,3.0606 -17.71047,3.0606 z"
         style="fill:#d50024;fill-opacity:1;stroke:#d50024;stroke-width:0.92654437px;stroke-linecap:butt;stroke-linejoin:miter;stroke-opacity:1" />
      <path
         inkscape:transform-center-y="-56.454338"
         inkscape:transform-center-x="-63.975963"
         inkscape:connector-curvature="0"
         id="path3821"
         d="m 558.20348,1038.5378 c 0,0 51.73771,-120.71829 103.61096,-105.46725 51.87326,15.25104 15.91393,59.87622 15.91393,59.87622 0,0 -78.33176,52.98193 -110.23951,57.47243 -31.90773,4.4905 -9.28538,-11.8814 -9.28538,-11.8814 z"
         style="fill:#d50024;fill-opacity:1;stroke:#d50024;stroke-width:0.85661435px;stroke-linecap:butt;stroke-linejoin:miter;stroke-opacity:1" />
      <path
         inkscape:transform-center-y="49.733031"
         inkscape:transform-center-x="-59.112059"
         inkscape:connector-curvature="0"
         id="path3823"
         d="m 545.61308,1044.5565 c 0,0 148.54386,-3.0515 153.88847,61.2919 5.34459,64.3434 -56.51554,47.0386 -56.51554,47.0386 0,0 -88.15572,-59.5691 -106.05807,-92.2869 -17.90234,-32.7178 8.68514,-16.0436 8.68514,-16.0436 z"
         style="fill:#d50024;fill-opacity:1;stroke:#d50024;stroke-width:0.99817419px;stroke-linecap:butt;stroke-linejoin:miter;stroke-opacity:1" />
      <path
         inkscape:transform-center-y="56.91779"
         inkscape:transform-center-x="42.875925"
         inkscape:connector-curvature="0"
         id="path3825"
         d="m 559.7749,1040.8459 c 0,0 5.89394,135.1154 -51.64069,141.0951 -57.53463,5.9798 -43.34639,-50.6104 -43.34639,-50.6104 0,0 51.49549,-81.2514 80.42809,-98.1094 28.93259,-16.858 14.55899,7.6247 14.55899,7.6247 z"
         style="fill:#d50024;fill-opacity:1;stroke:#d50024;stroke-width:0.90147984px;stroke-linecap:butt;stroke-linejoin:miter;stroke-opacity:1" />
      <path
         inkscape:transform-center-y="-16.309665"
         inkscape:transform-center-x="82.724567"
         inkscape:connector-curvature="0"
         id="path3827"
         d="m 546.63488,1050.8611 c 0,0 -133.17186,47.0511 -155.28145,-3.409 -22.10958,-50.46013 38.34009,-55.02368 38.34009,-55.02368 0,0 95.5253,21.74308 120.46486,42.84408 24.93957,21.101 -3.5235,15.5886 -3.5235,15.5886 z"
         style="fill:#d50024;fill-opacity:1;stroke:#d50024;stroke-width:0.89865273px;stroke-linecap:butt;stroke-linejoin:miter;stroke-opacity:1" />
      <path
         inkscape:transform-center-y="-31.244386"
         inkscape:transform-center-x="7.4078176"
         inkscape:connector-curvature="0"
         id="path3829"
         d="m 543.7277,1037.5342 c 0,0 -4.52806,-26.3323 -7.50772,-35.0542 -2.97966,-8.72195 -7.1413,-25.35023 11.75101,-16.34571 18.89231,9.00452 15.08098,25.05041 15.89654,23.25271 0.81557,-1.7977 -17.9091,40.4312 -17.9091,40.4312 z"
         style="fill:#f8d749;fill-opacity:1;stroke:#f8d749;stroke-width:0.8739416px;stroke-linecap:butt;stroke-linejoin:miter;stroke-opacity:1" />
      <path
         inkscape:transform-center-y="-24.929236"
         inkscape:transform-center-x="-10.027724"
         inkscape:connector-curvature="0"
         id="path3831"
         d="m 548.3843,1037.9231 c 0,0 17.88535,-19.8497 22.89381,-27.587 5.00844,-7.7373 15.49691,-21.29496 20.11194,-0.8817 4.61503,20.4133 -10.34895,27.347 -8.43206,26.8755 1.91689,-0.4716 -42.84391,10.946 -42.84391,10.946 z"
         style="fill:#f8d749;fill-opacity:1;stroke:#f8d749;stroke-width:0.8739416px;stroke-linecap:butt;stroke-linejoin:miter;stroke-opacity:1" />
      <path
         inkscape:transform-center-y="9.2986586"
         inkscape:transform-center-x="-15.247785"
         inkscape:connector-curvature="0"
         id="path3833"
         d="m 552.49839,1041.7434 c 0,0 24.86616,9.7759 33.86948,11.7484 9.00331,1.9725 25.38073,7.0321 7.88805,18.5215 -17.49267,11.4894 -29.23955,-0.087 -28.12491,1.5425 1.11465,1.6292 -25.29399,-36.2716 -25.29399,-36.2716 z"
         style="fill:#f8d749;fill-opacity:1;stroke:#f8d749;stroke-width:0.8739416px;stroke-linecap:butt;stroke-linejoin:miter;stroke-opacity:1" />
      <path
         inkscape:transform-center-y="13.671506"
         inkscape:transform-center-x="19.275611"
         inkscape:connector-curvature="0"
         id="path3835"
         d="m 549.96599,1040.9371 c 0,0 -1.76843,26.6602 -0.91552,35.8376 0.85291,9.1772 1.0022,26.3178 -15.25409,13.1369 -16.25629,-13.1808 -8.79107,-27.8868 -10.00516,-26.3303 -1.21412,1.5565 26.88463,-35.1089 26.88463,-35.1089 z"
         style="fill:#f8d749;fill-opacity:1;stroke:#f8d749;stroke-width:0.8739416px;stroke-linecap:butt;stroke-linejoin:miter;stroke-opacity:1" />
      <path
         style="fill:#f8d749;fill-opacity:1;stroke:#f8d749;stroke-width:0.8739416px;stroke-linecap:butt;stroke-linejoin:miter;stroke-opacity:1"
         d="m 539.58241,1042.395 c 0,0 -26.49994,3.4129 -35.33983,6.0219 -8.83988,2.6089 -25.62896,6.0652 -15.83529,-12.4303 9.79369,-18.4955 25.66446,-14.0105 23.9028,-14.9012 -1.76167,-0.8907 39.63949,19.5992 39.63949,19.5992 z"
         id="path3837"
         inkscape:connector-curvature="0"
         inkscape:transform-center-x="37.476967"
         inkscape:transform-center-y="-12.140697" />
    </g>
    <g
       id="g3839"
       transform="matrix(0.67921,0,0,0.67921,28.486858,555.74998)">
      <path
         style="fill:#83d839;fill-opacity:1;stroke:#83d839;stroke-width:0.92654437px;stroke-linecap:butt;stroke-linejoin:miter;stroke-opacity:1"
         d="m 529.77343,181.08588 c 0,0 -111.09048,-95.456671 -69.52532,-133.998791 41.56518,-38.5421199 74.69697,11.3283 74.69697,11.3283 0,0 22.53861,90.083941 12.53882,119.609951 -9.9998,29.52601 -17.71047,3.06054 -17.71047,3.06054 z"
         id="path3757"
         inkscape:connector-curvature="0"
         inkscape:transform-center-x="36.485097"
         inkscape:transform-center-y="-80.092783" />
      <path
         style="fill:#83d839;fill-opacity:1;stroke:#83d839;stroke-width:0.85661435px;stroke-linecap:butt;stroke-linejoin:miter;stroke-opacity:1"
         d="m 539.01057,182.9386 c 0,0 51.73771,-120.718301 103.61096,-105.467261 51.87326,15.25104 15.91393,59.876221 15.91393,59.876221 0,0 -78.33176,52.98198 -110.23951,57.47246 -31.90773,4.49046 -9.28538,-11.88142 -9.28538,-11.88142 z"
         id="path3761"
         inkscape:connector-curvature="0"
         inkscape:transform-center-x="-70.138654"
         inkscape:transform-center-y="-56.929764" />
      <path
         style="fill:#83d839;fill-opacity:1;stroke:#83d839;stroke-width:0.99817419px;stroke-linecap:butt;stroke-linejoin:miter;stroke-opacity:1"
         d="m 526.42017,188.95728 c 0,0 148.54386,-3.05151 153.88847,61.29189 5.34459,64.34341 -56.51554,47.03863 -56.51554,47.03863 0,0 -88.15572,-59.56911 -106.05807,-92.28691 -17.90234,-32.71779 8.68514,-16.04361 8.68514,-16.04361 z"
         id="path3763"
         inkscape:connector-curvature="0"
         inkscape:transform-center-x="-83.440319"
         inkscape:transform-center-y="57.199086" />
      <path
         style="fill:#83d839;fill-opacity:1;stroke:#83d839;stroke-width:0.90147984px;stroke-linecap:butt;stroke-linejoin:miter;stroke-opacity:1"
         d="m 540.58199,185.24669 c 0,0 5.89394,135.11536 -51.64069,141.09512 -57.53463,5.97977 -43.34639,-50.61045 -43.34639,-50.61045 0,0 51.49549,-81.25136 80.42809,-98.10939 28.93259,-16.85802 14.55899,7.62472 14.55899,7.62472 z"
         id="path3765"
         inkscape:connector-curvature="0"
         inkscape:transform-center-x="49.862394"
         inkscape:transform-center-y="76.598614" />
      <path
         style="fill:#83d839;fill-opacity:1;stroke:#83d839;stroke-width:0.89865273px;stroke-linecap:butt;stroke-linejoin:miter;stroke-opacity:1"
         d="m 527.44197,195.26185 c 0,0 -133.17186,47.05119 -155.28145,-3.40894 -22.10958,-50.46015 38.34009,-55.0237 38.34009,-55.0237 0,0 95.5253,21.74312 120.46486,42.84412 24.93957,21.101 -3.5235,15.58852 -3.5235,15.58852 z"
         id="path3767"
         inkscape:connector-curvature="0"
         inkscape:transform-center-x="86.716074"
         inkscape:transform-center-y="-18.431466" />
      <path
         style="fill:#00004e;fill-opacity:1;stroke:#00004e;stroke-width:0.8739416px;stroke-linecap:butt;stroke-linejoin:miter;stroke-opacity:1"
         d="m 524.53479,181.93502 c 0,0 -4.52806,-26.33233 -7.50772,-35.05426 -2.97966,-8.72192 -7.1413,-25.3502 11.75101,-16.34568 18.89231,9.00452 15.08098,25.05041 15.89654,23.25273 0.81557,-1.79769 -17.9091,40.43119 -17.9091,40.43119 z"
         id="path3771"
         inkscape:connector-curvature="0"
         inkscape:transform-center-x="-2.6905968"
         inkscape:transform-center-y="-29.017431" />
      <path
         style="fill:#00004e;fill-opacity:1;stroke:#00004e;stroke-width:0.8739416px;stroke-linecap:butt;stroke-linejoin:miter;stroke-opacity:1"
         d="m 529.19139,182.3239 c 0,0 17.88535,-19.84967 22.89381,-27.58698 5.00844,-7.73728 15.49691,-21.29499 20.11194,-0.8817 4.61503,20.41329 -10.34895,27.347 -8.43206,26.87545 1.91689,-0.47155 -42.84391,10.94607 -42.84391,10.94607 z"
         id="path3773"
         inkscape:connector-curvature="0"
         inkscape:transform-center-x="-22.774576"
         inkscape:transform-center-y="-21.819461" />
      <path
         style="fill:#00004e;fill-opacity:1;stroke:#00004e;stroke-width:0.8739416px;stroke-linecap:butt;stroke-linejoin:miter;stroke-opacity:1"
         d="m 533.30548,186.14417 c 0,0 24.86616,9.77595 33.86948,11.74842 9.00331,1.97247 25.38073,7.03207 7.88805,18.52151 -17.49267,11.48944 -29.23955,-0.0867 -28.12491,1.54249 1.11465,1.62923 -25.29399,-36.27163 -25.29399,-36.27163 z"
         id="path3775"
         inkscape:connector-curvature="0"
         inkscape:transform-center-x="-27.111824"
         inkscape:transform-center-y="17.705316" />
      <path
         style="fill:#00004e;fill-opacity:1;stroke:#00004e;stroke-width:0.8739416px;stroke-linecap:butt;stroke-linejoin:miter;stroke-opacity:1"
         d="m 530.77308,185.33792 c 0,0 -1.76843,26.66021 -0.91552,35.83753 0.85291,9.17729 1.0022,26.3178 -15.25409,13.13698 -16.25629,-13.18081 -8.79107,-27.88684 -10.00516,-26.33033 -1.21412,1.55653 26.88463,-35.10886 26.88463,-35.10886 z"
         id="path3777"
         inkscape:connector-curvature="0"
         inkscape:transform-center-x="12.708463"
         inkscape:transform-center-y="29.140678" />
      <path
         inkscape:transform-center-y="-4.6168522"
         inkscape:transform-center-x="29.144185"
         inkscape:connector-curvature="0"
         id="path3769"
         d="m 520.3895,186.79576 c 0,0 -26.49994,3.41292 -35.33983,6.0219 -8.83988,2.60898 -25.62896,6.06527 -15.83529,-12.43026 9.79369,-18.49554 25.66446,-14.01053 23.9028,-14.90122 -1.76167,-0.8907 39.63949,19.59918 39.63949,19.59918 z"
         style="fill:#00004e;fill-opacity:1;stroke:#00004e;stroke-width:0.8739416px;stroke-linecap:butt;stroke-linejoin:miter;stroke-opacity:1" />
    </g>
  </g>
</svg>
