<?xml version="1.0" standalone="no"?>
<svg xmlns="http://www.w3.org/2000/svg" width="735" height="600" viewBox="0 0 735 600">
<title>Retro flower icons</title>
<path transform="translate(206,212) scale(0.242,-0.242)" fill="#11a533" d="M201.479,585.379
C206.197,602.986,208.586,621.136,208.586,639.365
C208.586,754.564,115.199,847.951,0,847.951
C-115.199,847.951,-208.586,754.564,-208.586,639.365
C-208.586,621.136,-206.197,602.986,-201.479,585.379 L-95.9868,191.676
C-95.1387,188.51,-94.709,185.247,-94.709,181.97
C-94.709,161.26,-111.499,144.47,-132.209,144.47
C-139.458,144.47,-146.553,146.572,-152.633,150.52 L-494.468,372.51
C-528.287,394.472,-567.748,406.161,-608.072,406.161
C-723.271,406.161,-816.659,312.773,-816.659,197.574
C-816.659,86.6179,-729.793,-4.91895,-618.989,-10.7258 L-211.956,-32.0579
C-192.036,-33.1016,-176.419,-49.5586,-176.419,-69.5063
C-176.419,-80.8201,-181.527,-91.5293,-190.319,-98.6494 L-507.077,-355.155
C-555.983,-394.759,-584.396,-454.326,-584.396,-517.257
C-584.396,-632.456,-491.008,-725.844,-375.809,-725.844
C-289.452,-725.844,-212.024,-672.629,-181.077,-592.008 L-35.009,-211.489
C-29.4453,-196.995,-15.5251,-187.427,0,-187.427
C15.5251,-187.427,29.4453,-196.995,35.009,-211.489 L181.077,-592.008
C212.024,-672.629,289.452,-725.844,375.809,-725.844
C491.008,-725.844,584.396,-632.456,584.396,-517.257
C584.396,-454.326,555.983,-394.759,507.077,-355.155 L190.319,-98.6494
C181.527,-91.5293,176.419,-80.8201,176.419,-69.5063
C176.419,-49.5586,192.036,-33.1016,211.956,-32.0579 L618.989,-10.7258
C729.793,-4.91895,816.659,86.6179,816.659,197.574
C816.659,312.773,723.271,406.161,608.072,406.161
C567.748,406.161,528.287,394.472,494.468,372.51 L152.633,150.52
C146.553,146.572,139.458,144.47,132.209,144.47
C111.499,144.47,94.709,161.26,94.709,181.97
C94.709,185.247,95.1387,188.51,95.9868,191.676 L201.479,585.379Z
M60,0 C60,-33.137,33.137,-60,0,-60
C-33.137,-60,-60,-33.137,-60,0
C-60,33.137,-33.137,60,0,60
C33.137,60,60,33.137,60,0Z"/>
<path transform="translate(572,167) scale(0.185,-0.185)" fill="#1155f5" d="M-835.178,190.487
C-835.178,354.392,-682.808,463.661,-518.279,463.661
C-446.082,463.661,-365.733,443.286,-283.066,389.606
C-293.48,428.482,-300.233,470.17,-300.233,511.531
C-300.233,713.924,-155.608,865.543,0,865.543
C155.608,865.543,300.233,713.924,300.233,511.531
C300.233,470.17,293.48,428.482,283.066,389.606
C365.733,443.286,446.082,463.661,518.279,463.661
C682.808,463.661,835.178,354.392,835.178,190.487
C835.178,39.2025,702.063,-136.016,458.01,-148.816
C608.923,-271.038,619.471,-412.877,619.471,-463.72
C619.471,-624.177,513.072,-748.968,351.509,-748.968
C238.951,-748.968,77.623,-683.769,0,-481.58
C-77.623,-683.769,-238.951,-748.968,-351.509,-748.968
C-513.072,-748.968,-619.471,-624.177,-619.471,-463.72
C-619.471,-412.877,-608.923,-271.038,-458.01,-148.816
C-702.063,-136.016,-835.178,39.2025,-835.178,190.487Z
M-241.442,0
C-241.442,-133.345,-133.345,-241.442,0,-241.442
C133.345,-241.442,241.442,-133.345,241.442,0
C241.442,133.345,133.345,241.442,0,241.442
C-133.345,241.442,-241.442,133.345,-241.442,0Z"/>
<path transform="translate(468,456) scale(0.158,-0.158)" fill="#f5a533" d="M-966.219,0
C-966.219,155.608,-814.6,300.233,-612.207,300.233
C-570.846,300.233,-529.158,293.48,-490.283,283.066
C-563.875,360.688,-620.055,458.892,-620.055,573.794
C-620.055,742.173,-509.134,870.76,-352.786,870.76
C-207.156,870.76,-54.7822,756.352,0,566.13
C54.7822,756.352,207.156,870.76,352.786,870.76
C509.134,870.76,620.055,742.173,620.055,573.794
C620.055,458.892,563.875,360.688,490.283,283.066
C529.158,293.48,570.846,300.233,612.207,300.233
C814.6,300.233,966.219,155.608,966.219,0
C966.219,-155.608,814.6,-300.233,612.207,-300.233
C570.846,-300.233,529.158,-293.48,490.283,-283.066
C563.875,-360.688,620.055,-458.892,620.055,-573.794
C620.055,-742.173,509.134,-870.76,352.786,-870.76
C207.156,-870.76,54.7812,-756.352,0,-566.13
C-54.7822,-756.352,-207.156,-870.76,-352.786,-870.76
C-509.134,-870.76,-620.055,-742.173,-620.055,-573.794
C-620.055,-458.892,-563.875,-360.688,-490.283,-283.066
C-529.158,-293.48,-570.846,-300.233,-612.207,-300.233
C-814.6,-300.233,-966.219,-155.608,-966.219,0Z
M-269.526,0
C-269.526,-148.855,-148.855,-269.526,0,-269.526
C148.855,-269.526,269.526,-148.855,269.526,0
C269.526,148.855,148.855,269.526,0,269.526
C-148.855,269.526,-269.526,148.855,-269.526,0Z"/></svg>
